<?xml version="1.0" encoding="UTF-8"?>
<svg id="Warstwa_2" data-name="Warstwa 2" xmlns="http://www.w3.org/2000/svg" width="270.04" height="257.53" xmlns:xlink="http://www.w3.org/1999/xlink" viewBox="0 0 270.04 257.53">
  <defs>
    <style>
      .cls-1 {
        fill: url(#Gradient_bez_nazwy);
      }

      .cls-2 {
        fill: url(#Gradient_bez_nazwy_2);
      }
    </style>
    <linearGradient id="Gradient_bez_nazwy" data-name="Gradient bez nazwy" x1="44.1" y1="91.22" x2="261.87" y2="91.22" gradientTransform="translate(154.29 283.37) rotate(-57) scale(1 -1)" gradientUnits="userSpaceOnUse">
      <stop offset=".07" stop-color="#0081ab"/>
      <stop offset=".28" stop-color="#70bb79"/>
      <stop offset=".8" stop-color="#9bc42e"/>
      <stop offset="1" stop-color="#69c6de"/>
    </linearGradient>
    <linearGradient id="Gradient_bez_nazwy_2" data-name="Gradient bez nazwy 2" x1="-39.68" y1="132.06" x2="274.8" y2="132.06" gradientTransform="translate(154.29 283.37) rotate(-57) scale(1 -1)" gradientUnits="userSpaceOnUse">
      <stop offset=".16" stop-color="#1f3c90"/>
      <stop offset=".57" stop-color="#69c7e7"/>
      <stop offset="1" stop-color="#2b4798"/>
    </linearGradient>
  </defs>
  <g id="Warstwa_2-2" data-name="Warstwa 2">
    <g id="Warstwa_1-2" data-name="Warstwa 1-2">
      <g>
        <path class="cls-1" d="M51.7,172.09c17.57,2.32,35.15-1.13,52.03-5.92,19.37-5.5,38.09-13.3,56.16-22.12,18.14-8.86,35.81-18.84,52.66-29.95,14.35-9.47,28.01-19.93,39.98-32.32,6.6-6.83,12.88-14.65,15.98-23.74,3.03-8.93,1.98-20.06-6.84-25.23-2.3-1.35-4.64-2.43-7.2-3.18-4.77-1.39-8.95,3.65-10.14,7.74-.71,2.44-1.14,5.27-.28,7.71,.68,1.92,1.82,3.89,3.93,4.51,1.82,.54,3.6,1.19,5.26,2.11l-1.72-.95c1.42,.79,2.72,1.76,3.79,2.98l-1.32-1.54c.57,.68,1.04,1.41,1.41,2.22l-.88-2.02c.29,.67,.51,1.36,.64,2.08l-.43-2.37c.13,.74,.18,1.47,.17,2.22l.07-2.61c-.03,.92-.17,1.84-.36,2.74l.62-2.73c-.28,1.21-.69,2.37-1.17,3.51l1.11-2.57c-.97,2.22-2.2,4.32-3.56,6.32l1.47-2.16c-3.7,5.41-8.24,10.21-12.94,14.74l1.74-1.67c-12.34,11.86-26.34,21.83-40.77,30.96-4.7,2.97-9.45,5.85-14.25,8.65l1.9-1.11c-11.81,6.86-23.92,13.24-36.29,19.05-12.4,5.82-25.06,11.09-38.04,15.47-6.79,2.29-13.66,4.33-20.63,6,.66-.15,1.31-.32,1.97-.47-10.19,2.43-20.67,4.18-31.18,4.03-2.57-.03-5.12-.19-7.68-.5l1.95,.24c-.23-.03-.46-.06-.7-.08-1-.35-1.98-.35-2.94,0-1.08,.16-2.04,.61-2.89,1.34-1.97,1.47-3.64,4.08-4.31,6.4s-1.14,5.27-.28,7.71c.61,1.72,1.85,4.23,3.93,4.51h.01Z"/>
        <path class="cls-2" d="M173.88,.07c-13.3,2.24-26.16,6.79-38.48,12.15-14.44,6.28-28.34,13.69-41.73,21.98-12.87,7.98-25.3,16.71-37.09,26.21-10.51,8.47-20.73,17.48-29.68,27.61-7.42,8.38-14.61,17.85-17.98,28.67-1.74,5.57-2.64,11.61-.99,17.31,1.02,3.55,3.42,6.04,6.57,7.83,3.24,1.84,7.13,2.4,10.79,2.62,7.14,.41,14.29,0,21.38-.88,16.96-2.09,33.63-6.53,49.87-11.74,18.59-5.98,36.76-13.22,54.54-21.28,16.27-7.37,32.24-15.49,47.53-24.72,15.05-9.08,29.23-19.57,42.13-31.53,5.02-4.67,10.13-9.77,13.6-15.73,2.17-3.72,3.91-7.61,4.68-11.88,.56-3.13,.76-6.92-.69-9.88-1.75-3.56-5.27-4.99-9.04-5.34-5.12-.49-10.27,.04-15.32,.88-13.39,2.22-26.5,6.41-39.23,11.07-18.12,6.63-35.91,14.35-53.2,22.91-19.16,9.49-37.74,20.22-55.14,32.66-17.8,12.73-34.57,27.27-48.58,44.13-14.68,17.66-26.73,37.84-33.5,59.89-5.12,16.7-6.99,36.32,1.81,52.18,4.82,8.71,11.79,15.56,20.5,20.35,1.26,.69,2.54,1.36,3.88,1.86,1.54,.58,3.36-.87,4.29-1.84,1.67-1.71,3-4.36,3.68-6.61s1.35-5.04,.91-7.51c-.27-1.56-.73-3.38-2.4-4.02-2.66-1-5.19-2.53-7.55-4.09l1.15,.77c-5.81-3.9-10.8-9-14.37-15.04l.8,1.37c-1.27-2.19-2.37-4.47-3.25-6.84-.46-1.23-.85-2.49-1.2-3.75-.09-.31-.16-.62-.24-.92-.21-.81,.43,1.89,.26,1.07-.04-.18-.08-.36-.12-.54-.15-.69-.29-1.38-.4-2.08-.25-1.5-.44-3.02-.55-4.54-.03-.35-.05-.71-.07-1.07-.09-1.84,.03,1.79,.02,.7-.02-.86-.02-1.72,0-2.57,.04-1.69,.17-3.38,.34-5.07,.13-1.36-.2,1.63-.18,1.48,.04-.23,.06-.48,.09-.71,.06-.42,.12-.84,.19-1.26,.15-.99,.33-1.97,.52-2.95s.4-1.9,.62-2.85c.04-.2,.1-.39,.14-.58,.29-1.17-.71,2.71-.39,1.54,.16-.6,.32-1.19,.49-1.78,.59-2.06,1.26-4.11,1.98-6.13,.36-1.02,.73-2.04,1.11-3.06,.17-.47,.36-.94,.55-1.41,.27-.72,.78-1.82-.56,1.39,.13-.33,.27-.67,.41-1,.82-2,1.69-3.97,2.59-5.94s1.92-4.02,2.95-5.99c.46-.89,.94-1.78,1.42-2.67,.14-.25,.28-.5,.42-.75,.71-1.29-.63,1.14-.62,1.1,.11-.49,.6-1.05,.85-1.5,2.24-3.87,4.64-7.64,7.18-11.31,1.23-1.79,2.51-3.55,3.8-5.28,.65-.87,1.31-1.74,1.98-2.59,1.11-1.44-1.1,1.38-.19,.24,.4-.51,.82-1.02,1.23-1.53,2.81-3.46,5.73-6.82,8.75-10.09,6.12-6.61,12.66-12.8,19.48-18.69,.95-.82-.35,.31-.45,.38,.23-.19,.45-.39,.68-.57,.4-.34,.8-.68,1.2-1,.91-.77,1.83-1.52,2.75-2.27,1.79-1.46,3.61-2.89,5.43-4.31,3.6-2.79,7.26-5.49,10.98-8.11,7.42-5.23,15.04-10.16,22.83-14.81,15.09-9.03,30.76-17.06,46.78-24.3,1.86-.84,3.72-1.67,5.6-2.49l-1.45,.64c12.45-5.46,25.08-10.6,37.97-14.94,10.03-3.37,20.27-6.38,30.7-8.18,4.25-.73,8.61-1.29,12.94-1.14l-1.37-.06c2.41,.1,5.09,.37,7.17,1.74l-1.15-.77c.59,.41,1.11,.91,1.48,1.54l-.8-1.37c.16,.3,.25,.61,.38,.92,.33,.73-.51-2.48-.33-1.32,.15,.93-.34,1.55-.03-1.57-.21,2.05,.4-2.66,.2-1.35-.02,.1-.04,.19-.05,.29-.13,.82-1.15,3,.6-2.3-.08,.25-.15,.5-.23,.74-.51,1.63,1.24-2.92,.73-1.82-.1,.23-.2,.45-.31,.68-.12,.23-.24,.48-.35,.71-.7,1.38,1.62-2.73,.66-1.18-.36,.57-.71,1.13-1.09,1.68-.67,.96-2.29,2.91-.15,.29-2.54,3.13-5.35,6.03-8.27,8.79-1.94,1.83-3.93,3.6-5.94,5.35-.26,.23-.51,.44-.78,.66,1.61-1.41,.75-.64,.35-.31-.6,.5-1.21,1.02-1.81,1.52-1.29,1.06-2.58,2.12-3.88,3.16-15.05,12.06-31.46,22.06-48.5,31.03-10.91,5.75-22.04,11.06-33.33,16.02l1.45-.64c-15.88,6.95-32.07,13.2-48.6,18.43-14.88,4.72-30.1,8.73-45.57,10.87-7.13,1-14.35,1.58-21.56,1.33l1.37,.06c-4.3-.17-9.01-.72-12.68-3.17l1.15,.77c-1.18-.8-2.2-1.81-2.92-3.04l.8,1.37c-.27-.47-.5-.96-.68-1.47-.08-.24-.12-.55-.24-.79,0,0,.49,2.4,.34,1.37-.02-.13-.05-.27-.07-.42-.04-.28-.06-.57-.09-.85-.16-1.43,0,2.89,.05,1.26,0-.31,.02-.6,.04-.92,.09-1.78-.44,2.98-.18,1.47,.05-.32,.1-.65,.17-.98,.04-.17,.07-.33,.11-.5,.31-1.49-.59,2.24-.54,2.07,.23-.7,.41-1.4,.66-2.1,.07-.18,.14-.36,.2-.54,.34-.94-1.36,3.3-.76,1.92,.16-.37,.32-.75,.49-1.12,.36-.8,.76-1.59,1.17-2.37,.09-.17,.19-.34,.27-.51,.7-1.3-1.43,2.52-.83,1.49,.26-.43,.5-.86,.75-1.29,.51-.84,1.03-1.67,1.57-2.47,1.19-1.77,2.45-3.49,3.74-5.18,.85-1.11-1.49,1.88-.81,1.03,.18-.22,.35-.45,.53-.67,.39-.49,.78-.96,1.18-1.44,.77-.93,1.55-1.84,2.34-2.75,1.69-1.92,3.44-3.8,5.2-5.65,3.93-4.07,8.03-7.96,12.25-11.71,1.13-1,2.26-2,3.4-2.98,.29-.25,.58-.49,.87-.75,.64-.55-1.46,1.24-.81,.69,.15-.12,.29-.25,.44-.37,.59-.5,1.18-1,1.78-1.49,2.47-2.07,4.98-4.09,7.52-6.07,10.57-8.29,21.61-15.98,33.01-23.07,11.49-7.14,23.37-13.7,35.66-19.37,1.48-.68,2.97-1.35,4.46-2l-1.45,.64c10-4.38,20.29-8.19,30.92-10.76,2.73-.66,5.49-1.23,8.26-1.71,1.77-.3,3.42-2.33,4.32-3.67,1.43-2.13,2.57-5.01,2.98-7.54s.9-9.62-3.55-8.87h0v.02Z"/>
      </g>
    </g>
  </g>
</svg>